# xmcd
#
# Track frame offsets: 
#        150
#        21168
#        52600
#        95436
#        115791
#        142861
#        167080
#        197959
#        246996
#
# Disc length: 3638 seconds
#
# Revision: 0
# Processed by: cddbd v1.5.2PL0 Copyright (c) Steve Scherf et al.
# Submitted via: ExactAudioCopy v0.95b4
#
DISCID=6f0e3409
DTITLE=The Electric Kings - Live @ BRBF 2005
DYEAR=2005
DGENRE=Blues
TTITLE0=Lollipop mama
TTITLE1=Hoodoo man blues
TTITLE2=Commit a crime
TTITLE3=Follow my lead
TTITLE4=Too many drivers
TTITLE5=Trust my baby
TTITLE6=Alive at the mall
TTITLE7=Pretty little thing
TTITLE8=Long distance call
EXTD=
EXTT0=
EXTT1=
EXTT2=
EXTT3=
EXTT4=
EXTT5=
EXTT6=
EXTT7=
EXTT8=
PLAYORDER=
